<svg xmlns="http://www.w3.org/2000/svg" width="800" height="600"><rect width="800" height="600" x="0" y="0" fill="#FFFFFF" id="background"/><g transform="translate(10,10)" id="visualization"><g><rect x="0" y="0" height="36.88570938999317" width="5" fill="black"><title>Other/Mixed: 381</title></rect><rect x="0" y="41.88570938999317" height="78.70887594242629" width="5" fill="black"><title>Hispanic: 813</title></rect><rect x="0" y="125.59458533241946" height="90.22960932145304" width="5" fill="black"><title>Black: 932</title></rect><rect x="775" y="2.5" height="133.5049691569568" width="5" fill="black"><title>Young: 1379</title></rect><rect x="387.5" y="2.5" height="140.47549691569566" width="5" fill="black"><title>rarely/never: 1451</title></rect><rect x="387.5" y="147.97549691569566" height="175.32813570938998" width="5" fill="black"><title>always: 1811</title></rect><rect x="775" y="141.0049691569568" height="202.4357436600411" width="5" fill="black"><title>Old: 2091</title></rect><rect x="775" y="348.4407128169979" height="229.05928718300208" width="5" fill="black"><title>Middle: 2366</title></rect><rect x="387.5" y="328.30363262508564" height="249.19636737491436" width="5" fill="black"><title>sporadic: 2574</title></rect><rect x="0" y="220.8241946538725" height="359.1758053461275" width="5" fill="black"><title>White: 3710</title></rect></g><g fill="none" stroke-opacity="1"><g style="mix-blend-mode: multiply;"><path d="M5,365.704677861549C196.25,365.704677861549,196.25,261.8758567511994,387.5,261.8758567511994" stroke="#d62728" stroke-width="122.85555174777245"/><title>White → always: 1269</title></g><g style="mix-blend-mode: multiply;"><path d="M5,503.5662268677176C196.25,503.5662268677176,196.25,501.0662268677176,387.5,501.0662268677176" stroke="#d62728" stroke-width="152.86754626456477"/><title>White → sporadic: 1579</title></g><g style="mix-blend-mode: multiply;"><path d="M5,195.49348869088413C196.25,195.49348869088413,196.25,404.30174777244684,387.5,404.30174777244684" stroke="#1f77b4" stroke-width="40.661411925976694"/><title>Black → sporadic: 420</title></g><g style="mix-blend-mode: multiply;"><path d="M5,262.55054832076763C196.25,262.55054832076763,196.25,101.24914324880055,387.5,101.24914324880055" stroke="#d62728" stroke-width="83.45270733379027"/><title>White → rarely/never: 862</title></g><g style="mix-blend-mode: multiply;"><path d="M5,15.87731322823852C196.25,15.87731322823852,196.25,152.13845099383136,387.5,152.13845099383136" stroke="#2ca02c" stroke-width="8.325908156271419"/><title>Other/Mixed → always: 86</title></g><g style="mix-blend-mode: multiply;"><path d="M5,5.857179575051405C196.25,5.857179575051405,196.25,8.357179575051404,387.5,8.357179575051404" stroke="#2ca02c" stroke-width="11.71435915010281"/><title>Other/Mixed → rarely/never: 121</title></g><g style="mix-blend-mode: multiply;"><path d="M5,136.4376285126799C196.25,136.4376285126799,196.25,48.67974640164496,387.5,48.67974640164496" stroke="#1f77b4" stroke-width="21.686086360520903"/><title>Black → rarely/never: 224</title></g><g style="mix-blend-mode: multiply;"><path d="M5,53.69688142563402C196.25,53.69688142563402,196.25,26.02553118574366,387.5,26.02553118574366" stroke="#ff7f0e" stroke-width="23.6223440712817"/><title>Hispanic → rarely/never: 244</title></g><g style="mix-blend-mode: multiply;"><path d="M5,28.462988348183686C196.25,28.462988348183686,196.25,336.7263536668951,387.5,336.7263536668951" stroke="#2ca02c" stroke-width="16.845442083618916"/><title>Other/Mixed → sporadic: 174</title></g><g style="mix-blend-mode: multiply;"><path d="M5,161.2217272104181C196.25,161.2217272104181,196.25,186.5070253598355,387.5,186.5070253598355" stroke="#1f77b4" stroke-width="27.88211103495545"/><title>Black → always: 288</title></g><g style="mix-blend-mode: multiply;"><path d="M5,73.64033584647021C196.25,73.64033584647021,196.25,164.43368745716242,387.5,164.43368745716242" stroke="#ff7f0e" stroke-width="16.264564770390677"/><title>Hispanic → always: 168</title></g><g style="mix-blend-mode: multiply;"><path d="M5,101.18360178204252C196.25,101.18360178204252,196.25,364.56005825908153,387.5,364.56005825908153" stroke="#ff7f0e" stroke-width="38.82196710075394"/><title>Hispanic → sporadic: 401</title></g><g style="mix-blend-mode: multiply;"><path d="M392.5,232.3963331048663C583.75,232.3963331048663,583.75,209.2580534612748,775,209.2580534612748" stroke="#9467bd" stroke-width="93.71487320082248"/><title>always → Old: 968</title></g><g style="mix-blend-mode: multiply;"><path d="M392.5,514.1843728581221C583.75,514.1843728581221,583.75,514.1843728581221,775,514.1843728581221" stroke="#e377c2" stroke-width="126.631254283756"/><title>sporadic → Middle: 1308</title></g><g style="mix-blend-mode: multiply;"><path d="M392.5,73.89950308430431C583.75,73.89950308430431,583.75,151.7027930089102,775,151.7027930089102" stroke="#8c564b" stroke-width="21.395647703906786"/><title>rarely/never → Old: 221</title></g><g style="mix-blend-mode: multiply;"><path d="M392.5,113.7864119259767C583.75,113.7864119259767,583.75,377.6297978067169,775,377.6297978067169" stroke="#8c564b" stroke-width="58.37816997943797"/><title>rarely/never → Middle: 603</title></g><g style="mix-blend-mode: multiply;"><path d="M392.5,407.2061343385881C583.75,407.2061343385881,583.75,299.778101439342,775,299.778101439342" stroke="#e377c2" stroke-width="87.32522275531186"/><title>sporadic → Old: 902</title></g><g style="mix-blend-mode: multiply;"><path d="M392.5,301.2787011651816C583.75,301.2787011651816,583.75,428.84381425633995,775,428.84381425633995" stroke="#9467bd" stroke-width="44.049862919808085"/><title>always → Middle: 455</title></g><g style="mix-blend-mode: multiply;"><path d="M392.5,32.85083961617546C583.75,32.85083961617546,583.75,32.85083961617546,775,32.85083961617546" stroke="#8c564b" stroke-width="60.701679232350926"/><title>rarely/never → Young: 627</title></g><g style="mix-blend-mode: multiply;"><path d="M392.5,345.92357779300886C583.75,345.92357779300886,583.75,118.38502398903358,775,118.38502398903358" stroke="#e377c2" stroke-width="35.23989033584647"/><title>sporadic → Young: 364</title></g><g style="mix-blend-mode: multiply;"><path d="M392.5,166.75719671007536C583.75,166.75719671007536,583.75,81.98337902673063,775,81.98337902673063" stroke="#9467bd" stroke-width="37.563399588759424"/><title>always → Young: 388</title></g></g><g><text x="9" y="18.442854694996583" text-anchor="start" transform="translate(0,-5)"><tspan alignment-baseline="middle" x="9" style="font-family: Arial, sans-serif; font-size: 10px; fill: black; font-weight: bold;">Other/Mixed</tspan><tspan alignment-baseline="middle" x="9" dy="12" style="font-family: Arial, sans-serif; font-size: 10px; fill: black; font-weight: normal;">381</tspan></text><text x="9" y="81.24014736120631" text-anchor="start" transform="translate(0,-5)"><tspan alignment-baseline="middle" x="9" style="font-family: Arial, sans-serif; font-size: 10px; fill: black; font-weight: bold;">Hispanic</tspan><tspan alignment-baseline="middle" x="9" dy="12" style="font-family: Arial, sans-serif; font-size: 10px; fill: black; font-weight: normal;">813</tspan></text><text x="9" y="170.70938999314598" text-anchor="start" transform="translate(0,-5)"><tspan alignment-baseline="middle" x="9" style="font-family: Arial, sans-serif; font-size: 10px; fill: black; font-weight: bold;">Black</tspan><tspan alignment-baseline="middle" x="9" dy="12" style="font-family: Arial, sans-serif; font-size: 10px; fill: black; font-weight: normal;">932</tspan></text><text x="771" y="69.2524845784784" text-anchor="end" transform="translate(0,-5)"><tspan alignment-baseline="middle" x="771" style="font-family: Arial, sans-serif; font-size: 10px; fill: black; font-weight: bold;">Young</tspan><tspan alignment-baseline="middle" x="771" dy="12" style="font-family: Arial, sans-serif; font-size: 10px; fill: black; font-weight: normal;">1379</tspan></text><text x="396.5" y="72.73774845784783" text-anchor="start" transform="translate(0,-5)"><tspan alignment-baseline="middle" x="396.5" style="font-family: Arial, sans-serif; font-size: 10px; fill: black; font-weight: bold;">rarely/never</tspan><tspan alignment-baseline="middle" x="396.5" dy="12" style="font-family: Arial, sans-serif; font-size: 10px; fill: black; font-weight: normal;">1451</tspan></text><text x="396.5" y="235.63956477039065" text-anchor="start" transform="translate(0,-5)"><tspan alignment-baseline="middle" x="396.5" style="font-family: Arial, sans-serif; font-size: 10px; fill: black; font-weight: bold;">always</tspan><tspan alignment-baseline="middle" x="396.5" dy="12" style="font-family: Arial, sans-serif; font-size: 10px; fill: black; font-weight: normal;">1811</tspan></text><text x="771" y="242.22284098697736" text-anchor="end" transform="translate(0,-5)"><tspan alignment-baseline="middle" x="771" style="font-family: Arial, sans-serif; font-size: 10px; fill: black; font-weight: bold;">Old</tspan><tspan alignment-baseline="middle" x="771" dy="12" style="font-family: Arial, sans-serif; font-size: 10px; fill: black; font-weight: normal;">2091</tspan></text><text x="771" y="462.97035640849896" text-anchor="end" transform="translate(0,-5)"><tspan alignment-baseline="middle" x="771" style="font-family: Arial, sans-serif; font-size: 10px; fill: black; font-weight: bold;">Middle</tspan><tspan alignment-baseline="middle" x="771" dy="12" style="font-family: Arial, sans-serif; font-size: 10px; fill: black; font-weight: normal;">2366</tspan></text><text x="396.5" y="452.9018163125428" text-anchor="start" transform="translate(0,-5)"><tspan alignment-baseline="middle" x="396.5" style="font-family: Arial, sans-serif; font-size: 10px; fill: black; font-weight: bold;">sporadic</tspan><tspan alignment-baseline="middle" x="396.5" dy="12" style="font-family: Arial, sans-serif; font-size: 10px; fill: black; font-weight: normal;">2574</tspan></text><text x="9" y="400.41209732693625" text-anchor="start" transform="translate(0,-5)"><tspan alignment-baseline="middle" x="9" style="font-family: Arial, sans-serif; font-size: 10px; fill: black; font-weight: bold;">White</tspan><tspan alignment-baseline="middle" x="9" dy="12" style="font-family: Arial, sans-serif; font-size: 10px; fill: black; font-weight: normal;">3710</tspan></text></g><g><text x="2.5" y="-4" text-anchor="middle" style="font-family: Arial, sans-serif; font-size: 12px; fill: rgb(123, 123, 123); font-weight: bold;">race</text><text x="777.5" y="-1.5" text-anchor="middle" style="font-family: Arial, sans-serif; font-size: 12px; fill: rgb(123, 123, 123); font-weight: bold;">Age_grp</text><text x="390" y="-1.5" text-anchor="middle" style="font-family: Arial, sans-serif; font-size: 12px; fill: rgb(123, 123, 123); font-weight: bold;">voter_category</text></g></g></svg>